<svg width="208" height="27" viewBox="0 0 208 27" fill="none" xmlns="http://www.w3.org/2000/svg">
<g clip-path="url(#clip0_3678_78087)">
<path d="M53.4291 16.299L59.255 26.4189H52.1598L48.3521 19.8101L46.1102 21.3419V26.4189H39.8369V0.246094H57.2368V13.6486L53.4291 16.299ZM46.1102 14.7331L50.9635 11.5575V5.61974H46.1102V14.7282V14.7331Z" fill="#00FFBE"/>
<path d="M77.9983 0.246094V9.13085H72.401V5.51276H68.141V13.6875H73.4806V18.9542H68.141V26.4189H61.9795V0.246094H77.9983Z" fill="#00FFBE"/>
<path d="M98.5732 26.4189H80.7988V0.246094H98.5732V26.4189ZM92.3388 5.5857H87.0721V21.1182H92.3388V5.5857Z" fill="#00FFBE"/>
<path d="M116.27 16.299L122.096 26.4189H115.001L111.193 19.8101L108.951 21.3419V26.4189H102.678V0.246094H120.078V13.6486L116.27 16.299ZM108.951 14.7331L113.804 11.5575V5.61974H108.951V14.7282V14.7331Z" fill="#00FFBE"/>
<path d="M140.614 0.246094H146.776V26.4189H140.614V13.8723L137.444 22.9078H134.117L130.981 13.8723V26.4189H124.819V0.246094H130.981L135.8 12.9046L140.614 0.246094Z" fill="#FFDC00"/>
<path d="M165.821 0.246094L169.142 26.4189H162.869L162.344 22.3486H156.595L156.075 26.4189H149.802L153.123 0.246094H165.821ZM161.677 17.1208L160.145 5.5468L158.803 5.5857L157.31 17.1208H161.677Z" fill="#FFDC00"/>
<path d="M169.515 0.246094H188.821V5.69755H182.358V26.4189H176.085V5.69755H169.515V0.246094Z" fill="#FFDC00"/>
<path d="M0 0.246094H17.3999V13.6486L6.27331 21.3419V26.4189H0V0.246094ZM6.27331 5.62461V14.7331L11.1266 11.5575V5.61974H6.27331V5.62461Z" fill="#00FFBE"/>
<path d="M36.6145 0.246094V9.14544H31.0074V5.51762H26.7425V11.7618H32.0918V16.9992H26.7425V21.1474H36.6145V26.4189H20.5762V0.246094H36.6145Z" fill="#00FFBE"/>
<path d="M207.277 0.246094V9.14544H201.669V5.51762H197.405V11.7618H202.754V16.9992H197.405V21.1474H207.277V26.4189H191.233V0.246094H207.277Z" fill="#FFDC00"/>
</g>
<defs>
<clipPath id="clip0_3678_78087">
<rect width="207.407" height="26.6667" fill="white"/>
</clipPath>
</defs>
</svg>
